JustTheBoards000001_forces_filt12Hz.mot
version=1
nRows=26
nColumns=28
inDegrees=yes
endheader
time	R_ground_force_vx	R_ground_force_vy	R_ground_force_vz	R_ground_force_px	R_ground_force_py	R_ground_force_pz	R_ground_torque_x	R_ground_torque_y	R_ground_torque_z	L_ground_force_vx	L_ground_force_vy	L_ground_force_vz	L_ground_force_px	L_ground_force_py	L_ground_force_pz	L_ground_torque_x	L_ground_torque_y	L_ground_torque_z	3_ground_force_vx	3_ground_force_vy	3_ground_force_vz	3_ground_force_px	3_ground_force_py	3_ground_force_pz	3_ground_torque_x	3_ground_torque_y	3_ground_torque_z	
0.000000	  0.000000	  0.000000	  0.000000	  0.000000	  0.000000	  0.000000	  0.000000	  0.000000	  0.000000	 -2.222975	138.282728	  1.305926	 -0.212060	  0.006000	 -0.915302	  0.000000	  0.880817	  0.000000	 -0.236415	142.072582	  0.373286	 -0.219133	  0.006000	 -1.476747	  0.000000	  0.036222	  0.000000
0.000500	  0.000000	  0.000000	  0.000000	  0.000000	  0.000000	  0.000000	  0.000000	  0.000000	  0.000000	 -2.218072	138.306933	  1.308175	 -0.212165	  0.006000	 -0.915311	  0.000000	  0.879325	  0.000000	 -0.228023	142.077820	  0.367027	 -0.219103	  0.006000	 -1.476784	  0.000000	  0.039336	  0.000000
0.001000	  0.000000	  0.000000	  0.000000	  0.000000	  0.000000	  0.000000	  0.000000	  0.000000	  0.000000	 -2.213220	138.331056	  1.310424	 -0.212270	  0.006000	 -0.915319	  0.000000	  0.877833	  0.000000	 -0.219714	142.083101	  0.360770	 -0.219072	  0.006000	 -1.476820	  0.000000	  0.042459	  0.000000
0.001500	  0.000000	  0.000000	  0.000000	  0.000000	  0.000000	  0.000000	  0.000000	  0.000000	  0.000000	 -2.208426	138.355067	  1.312671	 -0.212375	  0.006000	 -0.915328	  0.000000	  0.876341	  0.000000	 -0.211498	142.088420	  0.354521	 -0.219042	  0.006000	 -1.476856	  0.000000	  0.045585	  0.000000
0.002000	  0.000000	  0.000000	  0.000000	  0.000000	  0.000000	  0.000000	  0.000000	  0.000000	  0.000000	 -2.203695	138.378938	  1.314913	 -0.212479	  0.006000	 -0.915336	  0.000000	  0.874850	  0.000000	 -0.203385	142.093772	  0.348286	 -0.219012	  0.006000	 -1.476892	  0.000000	  0.048711	  0.000000
0.002500	  0.000000	  0.000000	  0.000000	  0.000000	  0.000000	  0.000000	  0.000000	  0.000000	  0.000000	 -2.199035	138.402644	  1.317145	 -0.212583	  0.006000	 -0.915344	  0.000000	  0.873362	  0.000000	 -0.195385	142.099152	  0.342070	 -0.218983	  0.006000	 -1.476928	  0.000000	  0.051833	  0.000000
0.003000	  0.000000	  0.000000	  0.000000	  0.000000	  0.000000	  0.000000	  0.000000	  0.000000	  0.000000	 -2.194451	138.426161	  1.319365	 -0.212687	  0.006000	 -0.915352	  0.000000	  0.871878	  0.000000	 -0.187506	142.104553	  0.335878	 -0.218953	  0.006000	 -1.476964	  0.000000	  0.054949	  0.000000
0.003500	  0.000000	  0.000000	  0.000000	  0.000000	  0.000000	  0.000000	  0.000000	  0.000000	  0.000000	 -2.189947	138.449467	  1.321568	 -0.212789	  0.006000	 -0.915360	  0.000000	  0.870399	  0.000000	 -0.179756	142.109968	  0.329716	 -0.218924	  0.006000	 -1.477000	  0.000000	  0.058054	  0.000000
0.004000	  0.000000	  0.000000	  0.000000	  0.000000	  0.000000	  0.000000	  0.000000	  0.000000	  0.000000	 -2.185529	138.472543	  1.323749	 -0.212891	  0.006000	 -0.915368	  0.000000	  0.868926	  0.000000	 -0.172138	142.115389	  0.323588	 -0.218895	  0.006000	 -1.477036	  0.000000	  0.061145	  0.000000
0.004500	  0.000000	  0.000000	  0.000000	  0.000000	  0.000000	  0.000000	  0.000000	  0.000000	  0.000000	 -2.181201	138.495370	  1.325905	 -0.212993	  0.006000	 -0.915376	  0.000000	  0.867461	  0.000000	 -0.164658	142.120808	  0.317499	 -0.218867	  0.006000	 -1.477072	  0.000000	  0.064220	  0.000000
0.005000	  0.000000	  0.000000	  0.000000	  0.000000	  0.000000	  0.000000	  0.000000	  0.000000	  0.000000	 -2.176965	138.517931	  1.328031	 -0.213093	  0.006000	 -0.915383	  0.000000	  0.866004	  0.000000	 -0.157318	142.126214	  0.311453	 -0.218839	  0.006000	 -1.477107	  0.000000	  0.067274	  0.000000
0.005500	  0.000000	  0.000000	  0.000000	  0.000000	  0.000000	  0.000000	  0.000000	  0.000000	  0.000000	 -2.172826	138.540211	  1.330124	 -0.213192	  0.006000	 -0.915391	  0.000000	  0.864556	  0.000000	 -0.150121	142.131599	  0.305454	 -0.218812	  0.006000	 -1.477142	  0.000000	  0.070305	  0.000000
0.006000	  0.000000	  0.000000	  0.000000	  0.000000	  0.000000	  0.000000	  0.000000	  0.000000	  0.000000	 -2.168783	138.562196	  1.332181	 -0.213290	  0.006000	 -0.915398	  0.000000	  0.863118	  0.000000	 -0.143067	142.136951	  0.299505	 -0.218785	  0.006000	 -1.477177	  0.000000	  0.073309	  0.000000
0.006500	  0.000000	  0.000000	  0.000000	  0.000000	  0.000000	  0.000000	  0.000000	  0.000000	  0.000000	 -2.164841	138.583874	  1.334197	 -0.213387	  0.006000	 -0.915405	  0.000000	  0.861690	  0.000000	 -0.136157	142.142261	  0.293611	 -0.218758	  0.006000	 -1.477211	  0.000000	  0.076284	  0.000000
0.007000	  0.000000	  0.000000	  0.000000	  0.000000	  0.000000	  0.000000	  0.000000	  0.000000	  0.000000	 -2.160999	138.605232	  1.336172	 -0.213482	  0.006000	 -0.915412	  0.000000	  0.860274	  0.000000	 -0.129392	142.147520	  0.287773	 -0.218732	  0.006000	 -1.477245	  0.000000	  0.079226	  0.000000
0.007500	  0.000000	  0.000000	  0.000000	  0.000000	  0.000000	  0.000000	  0.000000	  0.000000	  0.000000	 -2.157257	138.626259	  1.338102	 -0.213577	  0.006000	 -0.915419	  0.000000	  0.858870	  0.000000	 -0.122773	142.152719	  0.281995	 -0.218707	  0.006000	 -1.477279	  0.000000	  0.082134	  0.000000
0.008000	  0.000000	  0.000000	  0.000000	  0.000000	  0.000000	  0.000000	  0.000000	  0.000000	  0.000000	 -2.153617	138.646942	  1.339987	 -0.213669	  0.006000	 -0.915426	  0.000000	  0.857479	  0.000000	 -0.116298	142.157850	  0.276279	 -0.218682	  0.006000	 -1.477312	  0.000000	  0.085006	  0.000000
0.008500	  0.000000	  0.000000	  0.000000	  0.000000	  0.000000	  0.000000	  0.000000	  0.000000	  0.000000	 -2.150077	138.667274	  1.341825	 -0.213761	  0.006000	 -0.915433	  0.000000	  0.856101	  0.000000	 -0.109968	142.162905	  0.270629	 -0.218658	  0.006000	 -1.477345	  0.000000	  0.087839	  0.000000
0.009000	  0.000000	  0.000000	  0.000000	  0.000000	  0.000000	  0.000000	  0.000000	  0.000000	  0.000000	 -2.146637	138.687246	  1.343618	 -0.213851	  0.006000	 -0.915439	  0.000000	  0.854737	  0.000000	 -0.103781	142.167877	  0.265046	 -0.218634	  0.006000	 -1.477377	  0.000000	  0.090633	  0.000000
0.009500	  0.000000	  0.000000	  0.000000	  0.000000	  0.000000	  0.000000	  0.000000	  0.000000	  0.000000	 -2.143297	138.706852	  1.345365	 -0.213940	  0.006000	 -0.915446	  0.000000	  0.853387	  0.000000	 -0.097736	142.172759	  0.259533	 -0.218611	  0.006000	 -1.477409	  0.000000	  0.093384	  0.000000
0.010000	  0.000000	  0.000000	  0.000000	  0.000000	  0.000000	  0.000000	  0.000000	  0.000000	  0.000000	 -2.140057	138.726087	  1.347066	 -0.214027	  0.006000	 -0.915452	  0.000000	  0.852053	  0.000000	 -0.091832	142.177546	  0.254092	 -0.218588	  0.006000	 -1.477440	  0.000000	  0.096092	  0.000000
0.010500	  0.000000	  0.000000	  0.000000	  0.000000	  0.000000	  0.000000	  0.000000	  0.000000	  0.000000	 -2.136917	138.744945	  1.348724	 -0.214112	  0.006000	 -0.915458	  0.000000	  0.850734	  0.000000	 -0.086067	142.182232	  0.248724	 -0.218566	  0.006000	 -1.477471	  0.000000	  0.098755	  0.000000
0.011000	  0.000000	  0.000000	  0.000000	  0.000000	  0.000000	  0.000000	  0.000000	  0.000000	  0.000000	 -2.133876	138.763422	  1.350338	 -0.214197	  0.006000	 -0.915465	  0.000000	  0.849430	  0.000000	 -0.080441	142.186812	  0.243432	 -0.218545	  0.006000	 -1.477502	  0.000000	  0.101371	  0.000000
0.011500	  0.000000	  0.000000	  0.000000	  0.000000	  0.000000	  0.000000	  0.000000	  0.000000	  0.000000	 -2.130935	138.781514	  1.351909	 -0.214279	  0.006000	 -0.915471	  0.000000	  0.848143	  0.000000	 -0.074952	142.191281	  0.238218	 -0.218524	  0.006000	 -1.477531	  0.000000	  0.103939	  0.000000
0.012000	  0.000000	  0.000000	  0.000000	  0.000000	  0.000000	  0.000000	  0.000000	  0.000000	  0.000000	 -2.128092	138.799219	  1.353437	 -0.214361	  0.006000	 -0.915477	  0.000000	  0.846873	  0.000000	 -0.069597	142.195632	  0.233083	 -0.218504	  0.006000	 -1.477561	  0.000000	  0.106457	  0.000000
0.012500	  0.000000	  0.000000	  0.000000	  0.000000	  0.000000	  0.000000	  0.000000	  0.000000	  0.000000	 -2.125347	138.816535	  1.354924	 -0.214440	  0.006000	 -0.915483	  0.000000	  0.845621	  0.000000	 -0.064375	142.199859	  0.228029	 -0.218485	  0.006000	 -1.477590	  0.000000	  0.108922	  0.000000
